<svg xmlns="http://www.w3.org/2000/svg" xmlns:xlink="http://www.w3.org/1999/xlink" width="500" zoomAndPan="magnify" viewBox="0 0 375 374.999991" height="500" preserveAspectRatio="xMidYMid meet" version="1.0"><defs><g/></defs><g fill="#8a0ead" fill-opacity="1"><g transform="translate(33.703127, 210.676832)"><g><path d="M 34.796875 0.59375 C 29.203125 0.59375 24.171875 -0.4375 19.703125 -2.5 C 15.234375 -4.5625 11.679688 -7.609375 9.046875 -11.640625 C 6.410156 -15.679688 5.09375 -20.566406 5.09375 -26.296875 C 5.09375 -30.296875 5.796875 -34.628906 7.203125 -39.296875 C 10.265625 -49.296875 14.894531 -56.507812 21.09375 -60.9375 C 27.300781 -65.375 33.9375 -67.59375 41 -67.59375 C 44.800781 -67.59375 48.164062 -67.023438 51.09375 -65.890625 C 54.03125 -64.765625 56.734375 -63.132812 59.203125 -61 L 61.90625 -63.09375 C 63.695312 -64.5 65.207031 -65.46875 66.4375 -66 C 67.675781 -66.53125 69.0625 -66.796875 70.59375 -66.796875 C 72.257812 -66.796875 73.59375 -66.425781 74.59375 -65.6875 C 75.59375 -64.957031 76.09375 -63.894531 76.09375 -62.5 C 76.09375 -61.769531 75.960938 -61.035156 75.703125 -60.296875 L 70.09375 -44.703125 C 69.5 -42.898438 68.785156 -41.628906 67.953125 -40.890625 C 67.117188 -40.160156 65.867188 -39.796875 64.203125 -39.796875 C 62.460938 -39.796875 61.039062 -40.410156 59.9375 -41.640625 C 58.84375 -42.878906 57.597656 -45 56.203125 -48 C 54.597656 -51.132812 53.296875 -53.203125 52.296875 -54.203125 C 51.296875 -55.203125 49.832031 -55.703125 47.90625 -55.703125 C 45.164062 -55.703125 42.53125 -54.015625 40 -50.640625 C 37.46875 -47.273438 35.164062 -42.226562 33.09375 -35.5 C 31.363281 -29.832031 30.5 -25.097656 30.5 -21.296875 C 30.5 -17.960938 31.128906 -15.476562 32.390625 -13.84375 C 33.660156 -12.21875 35.363281 -11.40625 37.5 -11.40625 C 40.632812 -11.40625 43.21875 -12.101562 45.25 -13.5 C 47.28125 -14.894531 49.363281 -16.796875 51.5 -19.203125 C 52.832031 -20.671875 53.914062 -21.753906 54.75 -22.453125 C 55.582031 -23.148438 56.46875 -23.5 57.40625 -23.5 C 58.601562 -23.5 59.867188 -22.898438 61.203125 -21.703125 C 62.535156 -20.503906 63.164062 -19.300781 63.09375 -18.09375 C 63.164062 -16.632812 61.984375 -14.367188 59.546875 -11.296875 C 57.117188 -8.234375 53.753906 -5.484375 49.453125 -3.046875 C 45.148438 -0.617188 40.265625 0.59375 34.796875 0.59375 Z M 34.796875 0.59375 "/></g></g></g><g fill="#8a0ead" fill-opacity="1"><g transform="translate(102.900453, 210.676832)"><g><path d="M 61.296875 -13.796875 C 61.160156 -13.535156 61.09375 -13.132812 61.09375 -12.59375 C 61.09375 -12.132812 61.207031 -11.769531 61.4375 -11.5 C 61.675781 -11.226562 62 -11.09375 62.40625 -11.09375 C 63.195312 -11.09375 63.875 -11.441406 64.4375 -12.140625 C 65.007812 -12.847656 65.394531 -13.203125 65.59375 -13.203125 C 65.925781 -13.203125 66.191406 -12.984375 66.390625 -12.546875 C 66.597656 -12.117188 66.703125 -11.601562 66.703125 -11 C 66.765625 -9.0625 66.128906 -7.175781 64.796875 -5.34375 C 63.460938 -3.507812 61.507812 -2.007812 58.9375 -0.84375 C 56.375 0.320312 53.296875 0.90625 49.703125 0.90625 C 45.296875 0.90625 41.789062 -0.109375 39.1875 -2.140625 C 36.59375 -4.179688 35.265625 -6.898438 35.203125 -10.296875 C 35.203125 -12.765625 35.800781 -15.53125 37 -18.59375 L 42.5 -33 C 42.832031 -33.863281 43 -34.5625 43 -35.09375 C 43 -35.96875 42.710938 -36.65625 42.140625 -37.15625 C 41.578125 -37.65625 40.894531 -37.90625 40.09375 -37.90625 C 38.832031 -37.90625 37.550781 -37.320312 36.25 -36.15625 C 34.945312 -34.988281 33.894531 -33.101562 33.09375 -30.5 L 33.09375 -30.703125 L 26.796875 -10.40625 C 26.597656 -9.601562 26.5 -8.898438 26.5 -8.296875 C 26.5 -7.429688 26.664062 -6.75 27 -6.25 C 27.332031 -5.75 27.800781 -5.265625 28.40625 -4.796875 C 28.863281 -4.328125 29.191406 -3.941406 29.390625 -3.640625 C 29.597656 -3.347656 29.632812 -2.96875 29.5 -2.5 C 29.164062 -1.632812 28.5 -1 27.5 -0.59375 C 26.5 -0.195312 24.96875 0 22.90625 0 L 0.09375 0 C -1.632812 0 -2.898438 -0.28125 -3.703125 -0.84375 C -4.503906 -1.414062 -4.769531 -2.164062 -4.5 -3.09375 C -4.226562 -3.894531 -3.53125 -4.597656 -2.40625 -5.203125 C -1.40625 -5.734375 -0.570312 -6.363281 0.09375 -7.09375 C 0.757812 -7.832031 1.328125 -9 1.796875 -10.59375 L 17 -60.5 C 17.195312 -61.101562 17.296875 -61.601562 17.296875 -62 C 17.296875 -62.726562 17.113281 -63.328125 16.75 -63.796875 C 16.382812 -64.265625 15.898438 -64.734375 15.296875 -65.203125 C 14.628906 -65.734375 14.144531 -66.195312 13.84375 -66.59375 C 13.550781 -67 13.503906 -67.535156 13.703125 -68.203125 C 14.097656 -69.734375 16.195312 -71.066406 20 -72.203125 C 23.800781 -73.335938 27.769531 -73.90625 31.90625 -73.90625 C 35.769531 -73.90625 38.617188 -73.171875 40.453125 -71.703125 C 42.285156 -70.234375 43.203125 -68.234375 43.203125 -65.703125 C 43.203125 -64.234375 42.96875 -62.800781 42.5 -61.40625 L 37.09375 -43.796875 C 39.695312 -47.203125 42.445312 -49.570312 45.34375 -50.90625 C 48.25 -52.238281 51.398438 -52.90625 54.796875 -52.90625 C 58.867188 -52.90625 62.15625 -51.671875 64.65625 -49.203125 C 67.15625 -46.734375 68.40625 -43.53125 68.40625 -39.59375 C 68.40625 -37.53125 68.070312 -35.5 67.40625 -33.5 Z M 61.296875 -13.796875 "/></g></g></g><g fill="#8a0ead" fill-opacity="1"><g transform="translate(173.897717, 210.676832)"><g><path d="M 26.296875 -52.90625 C 30.160156 -52.90625 32.992188 -52.171875 34.796875 -50.703125 C 36.597656 -49.234375 37.5 -47.234375 37.5 -44.703125 C 37.5 -43.171875 37.265625 -41.703125 36.796875 -40.296875 L 27.59375 -10.40625 C 27.394531 -9.601562 27.296875 -8.898438 27.296875 -8.296875 C 27.296875 -7.429688 27.460938 -6.75 27.796875 -6.25 C 28.128906 -5.75 28.597656 -5.265625 29.203125 -4.796875 C 29.660156 -4.328125 29.988281 -3.941406 30.1875 -3.640625 C 30.394531 -3.347656 30.429688 -2.96875 30.296875 -2.5 C 29.960938 -1.632812 29.296875 -1 28.296875 -0.59375 C 27.296875 -0.195312 25.765625 0 23.703125 0 L 0.890625 0 C -0.835938 0 -2.101562 -0.28125 -2.90625 -0.84375 C -3.707031 -1.414062 -3.972656 -2.164062 -3.703125 -3.09375 C -3.429688 -3.894531 -2.734375 -4.597656 -1.609375 -5.203125 C -0.609375 -5.734375 0.222656 -6.363281 0.890625 -7.09375 C 1.554688 -7.832031 2.125 -9 2.59375 -10.59375 L 11.296875 -39.5 C 11.492188 -40.101562 11.59375 -40.601562 11.59375 -41 C 11.59375 -41.726562 11.425781 -42.3125 11.09375 -42.75 C 10.757812 -43.1875 10.257812 -43.632812 9.59375 -44.09375 C 8.925781 -44.632812 8.457031 -45.101562 8.1875 -45.5 C 7.925781 -45.894531 7.894531 -46.425781 8.09375 -47.09375 C 8.5 -48.632812 10.597656 -49.988281 14.390625 -51.15625 C 18.191406 -52.320312 22.160156 -52.90625 26.296875 -52.90625 Z M 33 -75 C 35.601562 -75 37.769531 -74.148438 39.5 -72.453125 C 41.226562 -70.753906 42.09375 -68.671875 42.09375 -66.203125 C 42.09375 -64.460938 41.644531 -62.757812 40.75 -61.09375 C 39.851562 -59.425781 38.585938 -58.078125 36.953125 -57.046875 C 35.316406 -56.015625 33.5 -55.5 31.5 -55.5 C 28.96875 -55.5 26.847656 -56.347656 25.140625 -58.046875 C 23.441406 -59.742188 22.5625 -61.863281 22.5 -64.40625 C 22.5 -66.070312 22.929688 -67.71875 23.796875 -69.34375 C 24.660156 -70.976562 25.894531 -72.328125 27.5 -73.390625 C 29.101562 -74.460938 30.9375 -75 33 -75 Z M 33 -75 "/></g></g></g><g fill="#8a0ead" fill-opacity="1"><g transform="translate(210.496309, 210.676832)"><g><path d="M 49.09375 -52.90625 C 52.832031 -52.90625 55.816406 -51.769531 58.046875 -49.5 C 60.285156 -47.226562 61.40625 -44.425781 61.40625 -41.09375 C 61.40625 -39.832031 61.269531 -38.664062 61 -37.59375 C 60.332031 -34.863281 59.066406 -32.765625 57.203125 -31.296875 C 55.335938 -29.828125 53.101562 -29.09375 50.5 -29.09375 C 47.96875 -29.09375 46.050781 -29.691406 44.75 -30.890625 C 43.445312 -32.097656 42.296875 -33.703125 41.296875 -35.703125 C 40.765625 -36.835938 40.265625 -37.671875 39.796875 -38.203125 C 39.328125 -38.734375 38.796875 -39 38.203125 -39 C 37.535156 -39 36.953125 -38.734375 36.453125 -38.203125 C 35.953125 -37.671875 35.5 -36.738281 35.09375 -35.40625 L 27.40625 -10.40625 C 27.269531 -10.070312 27.203125 -9.570312 27.203125 -8.90625 C 27.203125 -8.03125 27.453125 -7.3125 27.953125 -6.75 C 28.453125 -6.1875 29.132812 -5.632812 30 -5.09375 C 30.800781 -4.5625 31.332031 -4.128906 31.59375 -3.796875 C 31.863281 -3.460938 31.96875 -3.03125 31.90625 -2.5 C 31.769531 -1.632812 31.285156 -1 30.453125 -0.59375 C 29.617188 -0.195312 28.203125 0 26.203125 0 L 0.59375 0 C -1.132812 0 -2.378906 -0.28125 -3.140625 -0.84375 C -3.910156 -1.414062 -4.195312 -2.164062 -4 -3.09375 C -3.726562 -3.894531 -3.03125 -4.597656 -1.90625 -5.203125 C -0.90625 -5.734375 -0.0703125 -6.363281 0.59375 -7.09375 C 1.257812 -7.832031 1.828125 -9 2.296875 -10.59375 L 11.203125 -39.5 C 11.335938 -39.832031 11.40625 -40.300781 11.40625 -40.90625 C 11.40625 -41.632812 11.253906 -42.195312 10.953125 -42.59375 C 10.648438 -43 10.164062 -43.5 9.5 -44.09375 C 8.832031 -44.632812 8.363281 -45.101562 8.09375 -45.5 C 7.832031 -45.894531 7.800781 -46.425781 8 -47.09375 C 8.394531 -48.632812 10.492188 -49.988281 14.296875 -51.15625 C 18.097656 -52.320312 22.066406 -52.90625 26.203125 -52.90625 C 28.929688 -52.90625 31.195312 -52.285156 33 -51.046875 C 34.800781 -49.816406 35.96875 -48.066406 36.5 -45.796875 C 39.695312 -50.535156 43.894531 -52.90625 49.09375 -52.90625 Z M 49.09375 -52.90625 "/></g></g></g><g fill="#8a0ead" fill-opacity="1"><g transform="translate(268.39406, 210.676832)"><g><path d="M 52.296875 -53.296875 C 57.429688 -53.296875 61.460938 -51.59375 64.390625 -48.1875 C 67.328125 -44.789062 68.796875 -40.160156 68.796875 -34.296875 C 68.796875 -31.160156 68.363281 -27.863281 67.5 -24.40625 C 65.5 -16.132812 61.765625 -9.847656 56.296875 -5.546875 C 50.828125 -1.242188 44.492188 0.90625 37.296875 0.90625 C 32.703125 0.90625 28.703125 -0.0625 25.296875 -2 L 22.09375 8.703125 C 21.832031 9.429688 21.703125 10.128906 21.703125 10.796875 C 21.703125 11.535156 21.867188 12.15625 22.203125 12.65625 C 22.535156 13.15625 22.96875 13.632812 23.5 14.09375 C 24.03125 14.632812 24.378906 15.070312 24.546875 15.40625 C 24.710938 15.738281 24.726562 16.132812 24.59375 16.59375 C 24.332031 17.46875 23.703125 18.085938 22.703125 18.453125 C 21.703125 18.816406 20.164062 19 18.09375 19 L -4.796875 19 C -6.535156 19 -7.785156 18.710938 -8.546875 18.140625 C -9.316406 17.578125 -9.535156 16.863281 -9.203125 16 C -9.066406 15.46875 -8.832031 15.035156 -8.5 14.703125 C -8.164062 14.367188 -7.695312 14.066406 -7.09375 13.796875 C -6.09375 13.128906 -5.289062 12.445312 -4.6875 11.75 C -4.09375 11.050781 -3.5625 9.9375 -3.09375 8.40625 L 11.5 -39.5 C 11.695312 -40.101562 11.796875 -40.601562 11.796875 -41 C 11.796875 -41.726562 11.628906 -42.3125 11.296875 -42.75 C 10.960938 -43.1875 10.460938 -43.632812 9.796875 -44.09375 C 9.128906 -44.632812 8.660156 -45.101562 8.390625 -45.5 C 8.128906 -45.894531 8.097656 -46.425781 8.296875 -47.09375 C 8.703125 -48.632812 10.800781 -49.988281 14.59375 -51.15625 C 18.394531 -52.320312 22.363281 -52.90625 26.5 -52.90625 C 29.4375 -52.90625 31.851562 -52.171875 33.75 -50.703125 C 35.644531 -49.234375 36.726562 -47.195312 37 -44.59375 C 41.53125 -50.394531 46.628906 -53.296875 52.296875 -53.296875 Z M 40.703125 -23.59375 C 42.296875 -29.53125 43.09375 -33.632812 43.09375 -35.90625 C 43.09375 -37.300781 42.875 -38.210938 42.4375 -38.640625 C 42.007812 -39.078125 41.394531 -39.296875 40.59375 -39.296875 C 40 -39.296875 39.234375 -39.007812 38.296875 -38.4375 C 37.367188 -37.875 36.4375 -36.925781 35.5 -35.59375 L 27.59375 -9.40625 C 28.394531 -8.601562 29.363281 -8.203125 30.5 -8.203125 C 32.300781 -8.203125 34.015625 -9.21875 35.640625 -11.25 C 37.273438 -13.28125 38.960938 -17.394531 40.703125 -23.59375 Z M 40.703125 -23.59375 "/></g></g></g></svg>